<svg xmlns="http://www.w3.org/2000/svg" viewBox="0 0 212.83 32"><defs><style>.cls-1{fill:#333;}</style></defs><title>Asset 1</title><g id="Layer_2" data-name="Layer 2"><g id="Layer_1-2" data-name="Layer 1"><path class="cls-1" d="M0,29.88A22.22,22.22,0,0,0,9.42,32a11.14,11.14,0,0,0,7.11-2.45,7.49,7.49,0,0,0,3.1-6.09,7.8,7.8,0,0,0-2.73-6,42.65,42.65,0,0,0-5.26-3.6q-4.31-2.69-4.81-3.09A4.8,4.8,0,0,1,4.85,7,3.41,3.41,0,0,1,6,4.39a5.74,5.74,0,0,1,4.07-1.3,17.27,17.27,0,0,1,6.78,1.48L18.1,1.62A19.27,19.27,0,0,0,10,0,9.57,9.57,0,0,0,3.49,2.24,7.09,7.09,0,0,0,.92,7.8a7.6,7.6,0,0,0,2.45,5.68,35.62,35.62,0,0,0,5,3.37c2.65,1.6,4.22,2.61,4.71,3a5.43,5.43,0,0,1,2.26,4.2,4.35,4.35,0,0,1-1.71,3.39,6,6,0,0,1-4,1.46A21.51,21.51,0,0,1,1.34,27Z"/><path class="cls-1" d="M42,28.77a10.73,10.73,0,0,1-8.2-3.7,12.89,12.89,0,0,1-3.39-9A13.24,13.24,0,0,1,33.65,7a10.09,10.09,0,0,1,7.87-3.72A21.1,21.1,0,0,1,50.2,5.31l1.2-3A20.08,20.08,0,0,0,41.33,0,14.27,14.27,0,0,0,30.07,5,16.1,16.1,0,0,0,26,16a15.93,15.93,0,0,0,4.11,11,14.27,14.27,0,0,0,11.26,5,19.16,19.16,0,0,0,10.72-2.82L50.57,26.6A16.26,16.26,0,0,1,42,28.77"/><polygon class="cls-1" points="79.74 0.6 79.74 13.99 64.41 13.99 64.41 0.6 60.3 0.6 60.3 31.4 64.41 31.4 64.41 17.09 79.74 17.09 79.74 31.4 83.85 31.4 83.85 0.6 79.74 0.6"/><polygon class="cls-1" points="149.11 0.58 149.11 24.54 131.79 0.58 128.71 0.58 128.71 31.38 132.08 31.38 132.08 7.69 149.4 31.38 152.49 31.38 152.49 0.58 149.11 0.58"/><path class="cls-1" d="M175.17,16.12a8,8,0,0,0,4.39-2.89A8,8,0,0,0,181.5,8a6.51,6.51,0,0,0-2-4.67Q176.88.61,171.71.6h-8.17V31.4h4.11V16.9h3.41l8.87,14.5h4.71Zm-7.52-12.7h3A7.62,7.62,0,0,1,175.84,5a4.77,4.77,0,0,1,1.55,3.65,5,5,0,0,1-1.6,3.65,7,7,0,0,1-5.17,1.85h-3Z"/><polygon class="cls-1" points="208.95 0.6 201.24 13.39 193.48 0.6 189.05 0.6 198.79 16.49 198.79 31.4 202.9 31.4 202.9 16.49 212.83 0.6 208.95 0.6"/><rect class="cls-1" x="95.31" y="0.58" width="20.92" height="3.14"/><rect class="cls-1" x="95.31" y="14.01" width="20.92" height="3.14"/><rect class="cls-1" x="95.31" y="28.26" width="20.92" height="3.14"/></g></g></svg>