<svg xmlns="http://www.w3.org/2000/svg" viewBox="0 0 212.83 32"><g data-name="Layer 2"><path d="M0 29.88A22.22 22.22 0 0 0 9.42 32a11.14 11.14 0 0 0 7.11-2.45 7.49 7.49 0 0 0 3.1-6.09 7.8 7.8 0 0 0-2.73-6 42.65 42.65 0 0 0-5.26-3.6q-4.31-2.69-4.81-3.09A4.8 4.8 0 0 1 4.85 7 3.41 3.41 0 0 1 6 4.39a5.74 5.74 0 0 1 4.07-1.3 17.27 17.27 0 0 1 6.78 1.48l1.25-2.95A19.27 19.27 0 0 0 10 0a9.57 9.57 0 0 0-6.51 2.24A7.09 7.09 0 0 0 .92 7.8a7.6 7.6 0 0 0 2.45 5.68 35.62 35.62 0 0 0 5 3.37c2.65 1.6 4.22 2.61 4.71 3a5.43 5.43 0 0 1 2.26 4.2 4.35 4.35 0 0 1-1.71 3.39 6 6 0 0 1-4 1.46A21.51 21.51 0 0 1 1.34 27zm42-1.11a10.73 10.73 0 0 1-8.2-3.7 12.89 12.89 0 0 1-3.39-9A13.24 13.24 0 0 1 33.65 7a10.09 10.09 0 0 1 7.87-3.72 21.1 21.1 0 0 1 8.68 2.03l1.2-3A20.08 20.08 0 0 0 41.33 0a14.27 14.27 0 0 0-11.26 5A16.1 16.1 0 0 0 26 16a15.93 15.93 0 0 0 4.11 11 14.27 14.27 0 0 0 11.26 5 19.16 19.16 0 0 0 10.72-2.82l-1.52-2.58A16.26 16.26 0 0 1 42 28.77M79.74.6v13.39H64.41V.6H60.3v30.8h4.11V17.09h15.33V31.4h4.11V.6h-4.11zm69.37-.02v23.96L131.79.58h-3.08v30.8h3.37V7.69l17.32 23.69h3.09V.58h-3.38zm26.06 15.54a8 8 0 0 0 4.39-2.89A8 8 0 0 0 181.5 8a6.51 6.51 0 0 0-2-4.67Q176.88.61 171.71.6h-8.17v30.8h4.11V16.9h3.41l8.87 14.5h4.71zm-7.52-12.7h3A7.62 7.62 0 0 1 175.84 5a4.77 4.77 0 0 1 1.55 3.65 5 5 0 0 1-1.6 3.65 7 7 0 0 1-5.17 1.85h-3zM208.95.6l-7.71 12.79L193.48.6h-4.43l9.74 15.89V31.4h4.11V16.49L212.83.6h-3.88zM95.31.58h20.92v3.14H95.31zm0 13.43h20.92v3.14H95.31zm0 14.25h20.92v3.14H95.31z" fill="#333" data-name="Layer 1"/></g></svg>